<?xml version="1.0" encoding="UTF-8"?>
<svg width="202px" height="160px" viewBox="0 0 202 160" version="1.1" xmlns="http://www.w3.org/2000/svg" xmlns:xlink="http://www.w3.org/1999/xlink">
    <!-- Generator: Sketch 63.1 (92452) - https://sketch.com -->
    <title>031-github</title>
    <desc>Created with Sketch.</desc>
    <g id="Page-1" stroke="none" stroke-width="1" fill="none" fill-rule="evenodd">
        <g id="031-github" fill="#FFFFFF" fill-rule="nonzero">
            <path d="M103.324795,159.991593 C134.683744,159.991593 178.485386,160.748243 194.417077,128.876453 C200.428243,116.694384 201.773399,102.629097 201.773399,89.3624959 L201.764992,89.3624959 C201.764992,71.9343186 196.930837,55.3384565 185.370903,41.8532677 C187.514745,35.4133333 188.607685,28.6287028 188.607685,21.8020361 C188.607685,12.8567488 186.589951,8.36729064 182.470411,0.254318555 C163.638227,0.254318555 151.44775,3.78535304 137.155468,14.8997044 C126.142003,12.2850575 114.708177,11.0744171 103.358424,11.0744171 C90.7896223,11.0744171 78.2544499,12.3691297 66.072381,15.2359934 C51.5699179,4.00394089 39.3794417,0.26272578 20.3370772,0.26272578 C16.2679803,8.37569787 14.2082102,12.865156 14.2082102,21.8104433 C14.2082102,28.6287028 15.2591133,35.5310345 17.4449918,42.1054844 C5.84302135,55.4645649 0,71.9343186 0,89.3624959 C0,102.629097 2.36243021,116.820493 8.49129721,128.88486 C25.0535304,161.126568 71.4614122,159.991593 103.324795,159.991593 Z M58.8589819,76.0034154 C66.8458456,76.0034154 74.5384565,77.4158292 82.3992118,78.5003612 C111.135107,82.8721182 126.24289,76.0034154 143.856026,76.0034154 C163.520525,76.0034154 174.752578,92.1032512 174.752578,110.363744 C174.752578,146.926765 140.99757,152.500755 111.446174,152.500755 L91.1847619,152.500755 C61.7594745,152.500755 27.9624302,146.893136 27.9624302,110.363744 C27.9624302,92.1032512 39.1776683,76.0034154 58.8589819,76.0034154 L58.8589819,76.0034154 Z" id="Shape"></path>
            <path d="M140.022332,133.290246 C150.867652,133.290246 155.449589,119.065222 155.449589,110.363744 C155.449589,101.662266 150.867652,87.4372414 140.022332,87.4372414 C129.177011,87.4372414 124.595074,101.662266 124.595074,110.363744 C124.595074,119.065222 129.177011,133.290246 140.022332,133.290246 Z" id="Path"></path>
            <path d="M62.8019704,133.290246 C73.6472906,133.290246 78.2292282,119.065222 78.2292282,110.363744 C78.2292282,101.662266 73.6388834,87.4456486 62.8019704,87.4456486 C51.9650575,87.4456486 47.3747126,101.670673 47.3747126,110.372151 C47.3747126,119.073629 51.9566502,133.290246 62.8019704,133.290246 Z" id="Path"></path>
        </g>
    </g>
</svg>