<?xml version="1.0" encoding="UTF-8"?>
<svg width="196px" height="160px" viewBox="0 0 196 160" version="1.1" xmlns="http://www.w3.org/2000/svg" xmlns:xlink="http://www.w3.org/1999/xlink">
    <!-- Generator: Sketch 63.1 (92452) - https://sketch.com -->
    <title>Path</title>
    <desc>Created with Sketch.</desc>
    <g id="Page-1" stroke="none" stroke-width="1" fill="none" fill-rule="evenodd">
        <path d="M175.861,39.9015385 C183.831667,34.2153846 190.5365,27.1179487 196,18.945641 L196,18.9374359 C188.707167,22.145641 180.948833,24.2789744 172.8475,25.3128205 C181.1775,20.3158974 187.539333,12.4635897 190.528333,3.00307692 C182.761833,7.65538462 174.186833,10.9374359 165.048333,12.7753846 C157.673833,4.88205128 147.163333,0 135.697333,0 C113.451333,0 95.5418333,18.1415385 95.5418333,40.3774359 C95.5418333,43.5774359 95.8113333,46.654359 96.4728333,49.5835897 C63.0711667,47.9425641 33.5078333,31.8605128 13.6465,7.35179487 C10.1838333,13.3989744 8.14216667,20.3158974 8.14216667,27.7579487 C8.14216667,41.7394872 15.3043333,54.1292308 25.9945,61.3087179 C19.5346667,61.185641 13.2055,59.2984615 7.84,56.3364103 L7.84,56.7794872 C7.84,76.3979487 21.7641667,92.6933333 40.033,96.4512821 C36.7581667,97.3538462 33.1975,97.7805128 29.498,97.7805128 C26.9255,97.7805128 24.3285,97.6328205 21.8948333,97.0912821 C27.097,113.074872 41.8786667,124.832821 59.437,125.218462 C45.766,135.958974 28.4036667,142.432821 9.61216667,142.432821 C6.321,142.432821 3.1605,142.285128 0,141.883077 C17.8033333,153.411282 38.8896667,160 61.642,160 C132.553167,160 178.768333,100.562051 175.861,39.9015385 Z" id="Path" fill="#FFFFFF" fill-rule="nonzero"></path>
    </g>
</svg>