<?xml version="1.0" encoding="UTF-8"?>
<svg width="512px" height="364px" viewBox="0 0 512 364" version="1.1" xmlns="http://www.w3.org/2000/svg" xmlns:xlink="http://www.w3.org/1999/xlink">
    <!-- Generator: Sketch 63.1 (92452) - https://sketch.com -->
    <title>116-youtube</title>
    <desc>Created with Sketch.</desc>
    <g id="Page-1" stroke="none" stroke-width="1" fill="none" fill-rule="evenodd">
        <g id="116-youtube" transform="translate(-1.000000, 0.000000)" fill="#FFFFFF" fill-rule="nonzero">
            <path d="M501.672,52.4853333 L502.312,56.6666667 C496.125333,34.7146667 479.421333,17.776 458.194667,11.6106667 L457.746667,11.504 C417.832,0.666371849 257.213333,0.666371849 257.213333,0.666371849 C257.213333,0.666371849 97,0.453333333 56.68,11.504 C35.048,17.776 18.3226667,34.7146667 12.2426667,56.2186667 L12.136,56.6666667 C-2.776,134.554667 -2.88266667,228.144 12.7973333,311.536 L12.136,307.312 C18.3226667,329.264 35.0266667,346.202667 56.2533333,352.368 L56.7013333,352.474667 C96.5733333,363.333333 257.234667,363.333333 257.234667,363.333333 C257.234667,363.333333 417.426667,363.333333 457.768,352.474667 C479.421333,346.202667 496.146667,329.264 502.226667,307.76 L502.333333,307.312 C509.117333,271.088 513,229.402667 513,186.821333 C513,185.264 513,183.685333 512.978667,182.106667 C513,180.656 513,178.928 513,177.2 C513,134.597333 509.117333,92.912 501.672,52.4853333 L501.672,52.4853333 Z M205.970667,259.888 L205.970667,104.304 L339.645333,182.213333 L205.970667,259.888 Z" id="Shape"></path>
        </g>
    </g>
</svg>